<svg id="visual" viewBox="0 0 960 540" width="960" height="540" xmlns="http://www.w3.org/2000/svg" xmlns:xlink="http://www.w3.org/1999/xlink" version="1.1"><path d="M0 28L26.7 27.2C53.3 26.3 106.7 24.7 160 26.5C213.3 28.3 266.7 33.7 320 33.7C373.3 33.7 426.7 28.3 480 26.5C533.3 24.7 586.7 26.3 640 29C693.3 31.7 746.7 35.3 800 37.2C853.3 39 906.7 39 933.3 39L960 39L960 0L933.3 0C906.7 0 853.3 0 800 0C746.7 0 693.3 0 640 0C586.7 0 533.3 0 480 0C426.7 0 373.3 0 320 0C266.7 0 213.3 0 160 0C106.7 0 53.3 0 26.7 0L0 0Z" fill="#ffa65b"></path><path d="M0 44L26.7 44C53.3 44 106.7 44 160 47.7C213.3 51.3 266.7 58.7 320 59.7C373.3 60.7 426.7 55.3 480 51.7C533.3 48 586.7 46 640 48.7C693.3 51.3 746.7 58.7 800 61.3C853.3 64 906.7 62 933.3 61L960 60L960 37L933.3 37C906.7 37 853.3 37 800 35.2C746.7 33.3 693.3 29.7 640 27C586.7 24.3 533.3 22.7 480 24.5C426.7 26.3 373.3 31.7 320 31.7C266.7 31.7 213.3 26.3 160 24.5C106.7 22.7 53.3 24.3 26.7 25.2L0 26Z" fill="#ff9e4d"></path><path d="M0 71L26.7 73.7C53.3 76.3 106.7 81.7 160 85.3C213.3 89 266.7 91 320 89.3C373.3 87.7 426.7 82.3 480 81.3C533.3 80.3 586.7 83.7 640 88.2C693.3 92.7 746.7 98.3 800 99.3C853.3 100.3 906.7 96.7 933.3 94.8L960 93L960 58L933.3 59C906.7 60 853.3 62 800 59.3C746.7 56.7 693.3 49.3 640 46.7C586.7 44 533.3 46 480 49.7C426.7 53.3 373.3 58.7 320 57.7C266.7 56.7 213.3 49.3 160 45.7C106.7 42 53.3 42 26.7 42L0 42Z" fill="#ff953e"></path><path d="M0 163L26.7 165.7C53.3 168.3 106.7 173.7 160 180C213.3 186.3 266.7 193.7 320 191.8C373.3 190 426.7 179 480 175.3C533.3 171.7 586.7 175.3 640 186.2C693.3 197 746.7 215 800 216.8C853.3 218.7 906.7 204.3 933.3 197.2L960 190L960 91L933.3 92.8C906.7 94.7 853.3 98.3 800 97.3C746.7 96.3 693.3 90.7 640 86.2C586.7 81.7 533.3 78.3 480 79.3C426.7 80.3 373.3 85.7 320 87.3C266.7 89 213.3 87 160 83.3C106.7 79.7 53.3 74.3 26.7 71.7L0 69Z" fill="#ff8d2f"></path><path d="M0 206L26.7 207C53.3 208 106.7 210 160 214.5C213.3 219 266.7 226 320 224.2C373.3 222.3 426.7 211.7 480 210.8C533.3 210 586.7 219 640 232.5C693.3 246 746.7 264 800 262.2C853.3 260.3 906.7 238.7 933.3 227.8L960 217L960 188L933.3 195.2C906.7 202.3 853.3 216.7 800 214.8C746.7 213 693.3 195 640 184.2C586.7 173.3 533.3 169.7 480 173.3C426.7 177 373.3 188 320 189.8C266.7 191.7 213.3 184.3 160 178C106.7 171.7 53.3 166.3 26.7 163.7L0 161Z" fill="#ff831d"></path><path d="M0 239L26.7 237.2C53.3 235.3 106.7 231.7 160 235.2C213.3 238.7 266.7 249.3 320 248.3C373.3 247.3 426.7 234.7 480 234.7C533.3 234.7 586.7 247.3 640 260C693.3 272.7 746.7 285.3 800 280.8C853.3 276.3 906.7 254.7 933.3 243.8L960 233L960 215L933.3 225.8C906.7 236.7 853.3 258.3 800 260.2C746.7 262 693.3 244 640 230.5C586.7 217 533.3 208 480 208.8C426.7 209.7 373.3 220.3 320 222.2C266.7 224 213.3 217 160 212.5C106.7 208 53.3 206 26.7 205L0 204Z" fill="#ff7a00"></path><path d="M0 293L26.7 293C53.3 293 106.7 293 160 297.5C213.3 302 266.7 311 320 308.2C373.3 305.3 426.7 290.7 480 289.7C533.3 288.7 586.7 301.3 640 315.8C693.3 330.3 746.7 346.7 800 344.8C853.3 343 906.7 323 933.3 313L960 303L960 231L933.3 241.8C906.7 252.7 853.3 274.3 800 278.8C746.7 283.3 693.3 270.7 640 258C586.7 245.3 533.3 232.7 480 232.7C426.7 232.7 373.3 245.3 320 246.3C266.7 247.3 213.3 236.7 160 233.2C106.7 229.7 53.3 233.3 26.7 235.2L0 237Z" fill="#f17401"></path><path d="M0 314L26.7 314C53.3 314 106.7 314 160 317.7C213.3 321.3 266.7 328.7 320 327.8C373.3 327 426.7 318 480 317C533.3 316 586.7 323 640 335.5C693.3 348 746.7 366 800 367C853.3 368 906.7 352 933.3 344L960 336L960 301L933.3 311C906.7 321 853.3 341 800 342.8C746.7 344.7 693.3 328.3 640 313.8C586.7 299.3 533.3 286.7 480 287.7C426.7 288.7 373.3 303.3 320 306.2C266.7 309 213.3 300 160 295.5C106.7 291 53.3 291 26.7 291L0 291Z" fill="#e36d02"></path><path d="M0 449L26.7 450C53.3 451 106.7 453 160 454C213.3 455 266.7 455 320 453.2C373.3 451.3 426.7 447.7 480 445.8C533.3 444 586.7 444 640 445.8C693.3 447.7 746.7 451.3 800 451.3C853.3 451.3 906.7 447.7 933.3 445.8L960 444L960 334L933.3 342C906.7 350 853.3 366 800 365C746.7 364 693.3 346 640 333.5C586.7 321 533.3 314 480 315C426.7 316 373.3 325 320 325.8C266.7 326.7 213.3 319.3 160 315.7C106.7 312 53.3 312 26.7 312L0 312Z" fill="#d56703"></path><path d="M0 476L26.7 476C53.3 476 106.7 476 160 476C213.3 476 266.7 476 320 476C373.3 476 426.7 476 480 477C533.3 478 586.7 480 640 481C693.3 482 746.7 482 800 481C853.3 480 906.7 478 933.3 477L960 476L960 442L933.3 443.8C906.7 445.7 853.3 449.3 800 449.3C746.7 449.3 693.3 445.7 640 443.8C586.7 442 533.3 442 480 443.8C426.7 445.7 373.3 449.3 320 451.2C266.7 453 213.3 453 160 452C106.7 451 53.3 449 26.7 448L0 447Z" fill="#c76004"></path><path d="M0 541L26.7 541C53.3 541 106.7 541 160 541C213.3 541 266.7 541 320 541C373.3 541 426.7 541 480 541C533.3 541 586.7 541 640 541C693.3 541 746.7 541 800 541C853.3 541 906.7 541 933.3 541L960 541L960 474L933.3 475C906.7 476 853.3 478 800 479C746.7 480 693.3 480 640 479C586.7 478 533.3 476 480 475C426.7 474 373.3 474 320 474C266.7 474 213.3 474 160 474C106.7 474 53.3 474 26.7 474L0 474Z" fill="#ba5a05"></path></svg>