<svg xmlns="http://www.w3.org/2000/svg" version="1.1" xmlns:xlink="http://www.w3.org/1999/xlink" xmlns:svgjs="http://svgjs.dev/svgjs" width="1440" height="560" preserveAspectRatio="none" viewBox="0 0 1440 560"><g mask="url(&quot;#SvgjsMask1002&quot;)" fill="none"><rect width="1440" height="560" x="0" y="0" fill="url(&quot;#SvgjsLinearGradient1003&quot;)"></rect><path d="M1440 0L1275.7 0L1440 209.42z" fill="rgba(255, 255, 255, .1)"></path><path d="M1275.7 0L1440 209.42L1440 342.6L762.1 0z" fill="rgba(255, 255, 255, .075)"></path><path d="M762.0999999999999 0L1440 342.6L1440 461.98L757.79 0z" fill="rgba(255, 255, 255, .05)"></path><path d="M757.79 0L1440 461.98L1440 488.26L382.2 0z" fill="rgba(255, 255, 255, .025)"></path><path d="M0 560L228.27 560L0 498.97z" fill="rgba(0, 0, 0, .1)"></path><path d="M0 498.97L228.27 560L393 560L0 433.26000000000005z" fill="rgba(0, 0, 0, .075)"></path><path d="M0 433.26L393 560L1021.12 560L0 360.73z" fill="rgba(0, 0, 0, .05)"></path><path d="M0 360.73L1021.12 560L1057.42 560L0 212.15z" fill="rgba(0, 0, 0, .025)"></path></g><defs><mask id="SvgjsMask1002"><rect width="1440" height="560" fill="#ffffff"></rect></mask><linearGradient x1="15.28%" y1="-39.29%" x2="84.72%" y2="139.29%" gradientUnits="userSpaceOnUse" id="SvgjsLinearGradient1003"><stop stop-color="#0e2a47" offset="0"></stop><stop stop-color="#00459e" offset="1"></stop></linearGradient></defs></svg>