<svg id="visual" viewBox="0 0 960 540" width="960" height="540" xmlns="http://www.w3.org/2000/svg" xmlns:xlink="http://www.w3.org/1999/xlink" version="1.1"><rect x="0" y="0" width="960" height="540" fill="#002233"></rect><path d="M0 376L22.8 380.3C45.7 384.7 91.3 393.3 137 391.2C182.7 389 228.3 376 274 376.7C319.7 377.3 365.3 391.7 411.2 401C457 410.3 503 414.7 548.8 414.5C594.7 414.3 640.3 409.7 686 414C731.7 418.3 777.3 431.7 823 428.2C868.7 424.7 914.3 404.3 937.2 394.2L960 384L960 541L937.2 541C914.3 541 868.7 541 823 541C777.3 541 731.7 541 686 541C640.3 541 594.7 541 548.8 541C503 541 457 541 411.2 541C365.3 541 319.7 541 274 541C228.3 541 182.7 541 137 541C91.3 541 45.7 541 22.8 541L0 541Z" fill="#0066FF" stroke-linecap="round" stroke-linejoin="miter"></path></svg>